<svg width="22" height="21" viewBox="0 0 22 21" fill="none" xmlns="http://www.w3.org/2000/svg">
<path d="M21.1794 8.9493L21.0734 8.5185H11.3028V12.4815H17.1406C16.5345 15.2397 13.722 16.6916 11.4247 16.6916C9.75313 16.6916 7.99109 16.0178 6.82484 14.9347C6.20953 14.3541 5.71974 13.663 5.38353 12.9008C5.04731 12.1386 4.87126 11.3203 4.86547 10.4928C4.86547 8.82352 5.64828 7.15377 6.78734 6.05543C7.92641 4.95709 9.64672 4.34256 11.3572 4.34256C13.3161 4.34256 14.72 5.33938 15.245 5.79398L18.1836 2.99266C17.3216 2.26672 14.9534 0.4375 11.2625 0.4375C8.41484 0.4375 5.68437 1.48283 3.68844 3.38932C1.71875 5.2666 0.699219 7.98123 0.699219 10.5C0.699219 13.0188 1.66391 15.5977 3.57266 17.4898C5.61219 19.5077 8.50063 20.5625 11.4748 20.5625C14.1809 20.5625 16.7459 19.5464 18.5741 17.7028C20.3713 15.8879 21.3008 13.3768 21.3008 10.7444C21.3008 9.63615 21.1845 8.97805 21.1794 8.9493Z" fill="white"/>
</svg>
