<svg width="13" height="13" viewBox="0 0 13 13" fill="none" xmlns="http://www.w3.org/2000/svg">
<path d="M10.9504 3.30737C10.7016 3.30737 10.4584 3.2336 10.2516 3.09539C10.0447 2.95718 9.88351 2.76074 9.78831 2.5309C9.6931 2.30107 9.6682 2.04817 9.71673 1.80417C9.76526 1.56018 9.88506 1.33606 10.061 1.16015C10.2369 0.984245 10.461 0.86445 10.705 0.815917C10.949 0.767384 11.2019 0.792293 11.4317 0.887494C11.6616 0.982695 11.858 1.14391 11.9962 1.35076C12.1344 1.5576 12.2082 1.80079 12.2082 2.04956C12.2085 2.21484 12.1762 2.37856 12.1132 2.53133C12.0501 2.68409 11.9574 2.82289 11.8406 2.93976C11.7237 3.05663 11.5849 3.14927 11.4321 3.21235C11.2794 3.27544 11.1157 3.30773 10.9504 3.30737ZM5.5 4.14562C6.16342 4.14562 6.81195 4.34234 7.36356 4.71092C7.91517 5.0795 8.34511 5.60337 8.59899 6.21629C8.85287 6.82921 8.91929 7.50365 8.78987 8.15433C8.66044 8.805 8.34097 9.40268 7.87186 9.87179C7.40275 10.3409 6.80507 10.6604 6.1544 10.7898C5.50372 10.9192 4.82928 10.8528 4.21636 10.5989C3.60344 10.345 3.07957 9.91511 2.71099 9.36349C2.34241 8.81188 2.14569 8.16335 2.14569 7.49993C2.14664 6.6106 2.50034 5.75797 3.12919 5.12912C3.75804 4.50027 4.61067 4.14657 5.5 4.14562ZM5.5 2.46868C4.50491 2.46868 3.53217 2.76376 2.70479 3.3166C1.8774 3.86944 1.23254 4.65522 0.851733 5.57456C0.47093 6.4939 0.371294 7.50551 0.565426 8.48148C0.759558 9.45745 1.23874 10.3539 1.94237 11.0576C2.646 11.7612 3.54249 12.2404 4.51845 12.4345C5.49442 12.6286 6.50604 12.529 7.42538 12.1482C8.34472 11.7674 9.13049 11.1225 9.68333 10.2951C10.2362 9.46776 10.5313 8.49502 10.5313 7.49993C10.5313 6.16556 10.0012 4.88584 9.05763 3.9423C8.11409 2.99876 6.83437 2.46868 5.5 2.46868Z" fill="white"/>
</svg>
