<svg width="24" height="19" viewBox="0 0 24 19" fill="none" xmlns="http://www.w3.org/2000/svg">
<path d="M24 2.2513C23.0997 2.6384 22.1472 2.89343 21.1725 3.00833C22.1968 2.41477 22.9672 1.47179 23.339 0.356257C22.3705 0.916652 21.3128 1.30985 20.211 1.51901C19.747 1.03785 19.1891 0.655063 18.571 0.393933C17.9529 0.132803 17.2876 -0.00122081 16.6155 8.37898e-06C13.8945 8.37898e-06 11.6925 2.1474 11.6925 4.79452C11.6906 5.16273 11.7332 5.52984 11.8195 5.88801C9.86834 5.79749 7.95776 5.30494 6.20999 4.44187C4.46222 3.57879 2.91574 2.36419 1.6695 0.875787C1.23229 1.60517 1.00107 2.43737 1 3.28541C1 4.94791 1.8765 6.41744 3.2 7.27837C2.41586 7.25996 1.6478 7.05458 0.961 6.67968V6.73905C0.961 9.06456 2.661 10.9992 4.911 11.4396C4.48789 11.5512 4.05188 11.6077 3.614 11.6078C3.30329 11.6083 2.99328 11.5785 2.6885 11.5187C3.314 13.4237 5.1345 14.8091 7.291 14.8487C5.53869 16.1851 3.38731 16.9074 1.175 16.902C0.782309 16.9015 0.389983 16.8783 0 16.8328C2.25059 18.2549 4.86672 19.0071 7.537 19C16.605 19 21.559 11.6919 21.559 5.35364C21.559 5.14583 21.5535 4.93801 21.5435 4.73515C22.505 4.05831 23.3369 3.21719 24 2.2513Z" fill="white"/>
</svg>
